<?xml version="1.0" encoding="UTF-8"?>
<svg
  xmlns="http://www.w3.org/2000/svg"
  width="220"
  height="32"
  viewBox="0 0 220 32"
>
  <g
    transform="
      translate(0, 0)
      scale(1)
    "
  >
    <path d="M722 16Q722 12 720 7Q718 2 713 2Q682 2 650.5 1.5Q619 1 587 1Q571 1 556.5 2.5Q542 4 530 15Q526 18 523 22Q520 26 517 30Q393 203 257 371L222 342L222 53Q222 36 238 31Q254 26 274 26.5Q294 27 304 27Q317 27 317 14Q317 1 306 1Q272 1 239 3Q206 5 172 5Q139 5 105.5 4Q72 3 39 1Q31 6 31 15Q31 22 32.5 24Q34 26 41 27Q47 28 53 27.5Q59 27 65 27Q74 27 87.5 28Q101 29 111.5 34.5Q122 40 122 53L122 681Q122 691 108.5 699Q95 707 87 707L65 707Q58 707 52 706.5Q46 706 39 706Q29 706 28 712Q27 718 27 725Q27 733 34 733Q69 733 103.5 731Q138 729 172 729Q204 729 235.5 731Q267 733 298 733Q310 733 310 719Q310 715 307.5 710.5Q305 706 300 706Q289 706 278 706.5Q267 707 256 707Q245 707 233.5 700Q222 693 222 681L222 529Q222 490 222 451Q222 412 221 373Q321 467 417 566Q453 604 487 641.5Q521 679 552 720Q559 730 568 730Q583 730 598 729.5Q613 729 628 729Q641 729 653.5 729.5Q666 730 679 730Q684 730 685.5 725.5Q687 721 687 717Q687 713 684.5 708.5Q682 704 677 704Q649 704 624 696Q599 688 578 668L330 432Q405 336 482.5 240.5Q560 145 642 54Q657 38 675.5 34Q694 30 708 28Q722 26 722 16Z" transform="translate(0.00, 19) scale(0.015, -0.015)" fill="#202124"/>
    <path d="M362 117Q358 162 357.5 207.5Q357 253 356 299L342 299Q311 299 273.5 289.5Q236 280 202 261Q168 242 146.5 213.5Q125 185 125 148Q125 100 152 75.5Q179 51 225 51Q247 51 273 61.5Q299 72 323 87Q347 102 362 117ZM537 53Q537 49 536 47Q526 25 502.5 13.5Q479 2 456 2Q414 2 395.5 26.5Q377 51 366 87Q328 52 282 28.5Q236 5 183 5Q146 5 113.5 19.5Q81 34 61 62Q41 90 41 130Q41 172 62.5 202.5Q84 233 117.5 254.5Q151 276 189.5 289.5Q228 303 262 310Q285 315 309 319Q333 323 356 327Q356 355 353.5 392Q351 429 338 453Q325 476 303 494Q281 512 254 512Q208 512 182 488Q156 464 145 420Q144 415 143.5 409.5Q143 404 142 399Q141 393 134.5 388.5Q128 384 121 384Q102 384 86.5 393Q71 402 71 423Q71 435 75 444Q88 475 117 495.5Q146 516 181.5 527Q217 538 248 538Q302 538 346 518Q390 498 416.5 459.5Q443 421 443 363Q443 298 442.5 232Q442 166 446 100Q447 78 455 61.5Q463 45 488 45Q501 45 515.5 51.5Q530 58 534 58Q537 58 537 53Z" transform="translate(10.83, 19) scale(0.015, -0.015)" fill="#202124"/>
    <path d="M317 15Q317 10 314 5.5Q311 1 306 1Q278 1 250.5 2.5Q223 4 194 4L167 4Q137 4 107.5 2.5Q78 1 49 1Q45 1 43.5 6Q42 11 42 14Q42 19 43 21.5Q44 24 49 25Q54 27 60.5 26.5Q67 26 73 26Q80 26 86 25.5Q92 25 99 25Q113 25 124.5 31.5Q136 38 136 54L136 454Q136 471 130 480.5Q124 490 105 490Q91 490 76.5 488.5Q62 487 48 485Q40 485 40 494Q40 504 48 507Q60 511 73.5 512.5Q87 514 99 516Q127 521 155 527Q183 533 210 540Q213 541 218 541Q229 541 229 529Q229 411 228.5 292Q228 173 228 54Q228 38 242.5 31.5Q257 25 270 25Q280 25 290.5 26Q301 27 311 27Q315 27 316 22Q317 17 317 15ZM236 707Q236 682 218 664.5Q200 647 175 647Q150 647 132 664.5Q114 682 114 707Q114 732 132 749.5Q150 767 175 767Q200 767 218 749.5Q236 732 236 707Z" transform="translate(18.99, 19) scale(0.015, -0.015)" fill="#202124"/>
    <path d="M414 143Q414 98 394 69.5Q374 41 342 26Q310 11 272 5Q234 -1 198 -1Q165 -1 132.5 6Q100 13 67 16Q60 43 53.5 70Q47 97 39 123Q38 126 34.5 137Q31 148 31 149Q31 157 36 160.5Q41 164 48 164Q55 164 58 159Q64 152 68.5 140Q73 128 77 119Q85 103 91 94.5Q97 86 110 73Q149 32 207 32Q239 32 265.5 39Q292 46 308 65.5Q324 85 324 122Q324 154 304 175.5Q284 197 252.5 214Q221 231 186 247Q151 263 119.5 282.5Q88 302 68 330Q48 358 48 398Q48 447 73.5 478Q99 509 139 524.5Q179 540 222 540Q250 540 272.5 533Q295 526 320 517Q328 514 336 513Q344 512 352 512Q357 512 361 512Q365 512 369 513Q372 495 374.5 476.5Q377 458 379 439Q380 432 381.5 422.5Q383 413 383 405Q383 398 380 390.5Q377 383 368 383Q361 383 356.5 384.5Q352 386 349 393Q344 403 340.5 414.5Q337 426 333 436Q320 471 288 492.5Q256 514 219 514Q172 514 148 486.5Q124 459 124 413Q124 397 132.5 382Q141 367 152 356Q173 336 201.5 325Q230 314 256 303Q290 288 326.5 267Q363 246 388.5 216Q414 186 414 143Z" transform="translate(24.15, 19) scale(0.015, -0.015)" fill="#202124"/>
    <path d="M408 351Q407 392 401 429.5Q395 467 372 491.5Q349 516 297 516Q250 516 220.5 490.5Q191 465 175 426.5Q159 388 151 348Q176 347 200 346.5Q224 346 248 346Q288 346 328 347.5Q368 349 408 351ZM523 122Q523 117 521 116Q518 106 506.5 92Q495 78 481 65.5Q467 53 458 47Q425 24 383.5 10Q342 -4 301 -4Q267 -4 225.5 7Q184 18 155 37Q99 74 73 134Q47 194 47 259Q47 333 76 396Q105 459 169 498Q198 515 234 526.5Q270 538 303 538Q362 538 407 514Q452 490 477.5 446.5Q503 403 503 343Q503 326 495.5 321Q488 316 473 316Q453 316 433 317Q413 318 393 319Q365 321 337.5 321Q310 321 282 321Q248 321 214 321Q180 321 146 319Q145 303 144 288Q143 273 143 257Q143 220 152 180.5Q161 141 181 107.5Q201 74 232 53.5Q263 33 307 33Q352 33 393 47Q434 61 468 92Q477 101 484.5 111.5Q492 122 501 130Q506 135 512 135Q517 135 520 131Q523 127 523 122Z" transform="translate(30.84, 19) scale(0.015, -0.015)" fill="#202124"/>
    <path d="M317 15Q317 10 314 5.5Q311 1 306 1Q278 1 250.5 2.5Q223 4 194 4L167 4Q137 4 107.5 2.5Q78 1 49 1Q45 1 43.5 6Q42 11 42 14Q42 19 43 21.5Q44 24 49 25Q54 27 60.5 26.5Q67 26 73 26Q80 26 86 25.5Q92 25 99 25Q113 25 124.5 31.5Q136 38 136 54L136 454Q136 471 130 480.5Q124 490 105 490Q91 490 76.5 488.5Q62 487 48 485Q40 485 40 494Q40 504 48 507Q60 511 73.5 512.5Q87 514 99 516Q127 521 155 527Q183 533 210 540Q213 541 218 541Q229 541 229 529Q229 411 228.5 292Q228 173 228 54Q228 38 242.5 31.5Q257 25 270 25Q280 25 290.5 26Q301 27 311 27Q315 27 316 22Q317 17 317 15ZM236 707Q236 682 218 664.5Q200 647 175 647Q150 647 132 664.5Q114 682 114 707Q114 732 132 749.5Q150 767 175 767Q200 767 218 749.5Q236 732 236 707Z" transform="translate(39.02, 19) scale(0.015, -0.015)" fill="#202124"/>
    <path d="M664 376Q664 418 655.5 464.5Q647 511 629 554Q611 597 581 627Q553 655 515.5 674.5Q478 694 438 698Q426 700 413.5 700Q401 700 389 700Q350 700 311.5 699Q273 698 234 697L234 82Q234 52 254 43Q274 34 299 34Q339 34 381.5 37Q424 40 464.5 51.5Q505 63 539 88Q608 139 636 216.5Q664 294 664 376ZM775 391Q775 292 733.5 203Q692 114 606 61Q571 40 525.5 26.5Q480 13 433 7Q386 1 345 1Q309 1 272.5 3Q236 5 199 5Q170 5 140 4.5Q110 4 81 2Q76 1 71 1Q66 1 61 1Q55 1 54 6Q53 11 53 15Q53 22 63.5 25Q74 28 86.5 30Q99 32 104 35Q121 44 126.5 61.5Q132 79 132 97Q132 152 132.5 206.5Q133 261 133 316L133 408Q133 463 133 517Q133 571 133 626Q133 664 124 680Q115 696 74 696Q67 696 60.5 695.5Q54 695 47 695Q40 695 34.5 699.5Q29 704 29 711Q29 727 45 727Q68 727 91 725.5Q114 724 136 724Q210 724 284.5 728.5Q359 733 433 733Q540 733 616.5 692Q693 651 734 574.5Q775 498 775 391Z" transform="translate(44.17, 19) scale(0.015, -0.015)" fill="#202124"/>
    <path d="M408 351Q407 392 401 429.5Q395 467 372 491.5Q349 516 297 516Q250 516 220.5 490.5Q191 465 175 426.5Q159 388 151 348Q176 347 200 346.5Q224 346 248 346Q288 346 328 347.5Q368 349 408 351ZM523 122Q523 117 521 116Q518 106 506.5 92Q495 78 481 65.5Q467 53 458 47Q425 24 383.5 10Q342 -4 301 -4Q267 -4 225.5 7Q184 18 155 37Q99 74 73 134Q47 194 47 259Q47 333 76 396Q105 459 169 498Q198 515 234 526.5Q270 538 303 538Q362 538 407 514Q452 490 477.5 446.5Q503 403 503 343Q503 326 495.5 321Q488 316 473 316Q453 316 433 317Q413 318 393 319Q365 321 337.5 321Q310 321 282 321Q248 321 214 321Q180 321 146 319Q145 303 144 288Q143 273 143 257Q143 220 152 180.5Q161 141 181 107.5Q201 74 232 53.5Q263 33 307 33Q352 33 393 47Q434 61 468 92Q477 101 484.5 111.5Q492 122 501 130Q506 135 512 135Q517 135 520 131Q523 127 523 122Z" transform="translate(56.49, 19) scale(0.015, -0.015)" fill="#202124"/>
    <path d="M525 124Q525 117 514 104.5Q503 92 498 87Q489 78 480 69Q471 60 460 52Q429 30 386 14.5Q343 -1 305 -1Q229 -1 171.5 32.5Q114 66 81.5 124.5Q49 183 49 258Q49 332 79 397Q109 462 174 502Q202 519 236.5 529Q271 539 303 539Q328 539 351.5 533Q375 527 397 517Q410 511 422 505Q434 499 448 499Q460 499 467.5 506.5Q475 514 479 514Q482 514 482 510Q484 498 483.5 486Q483 474 484 463Q485 441 486 419Q487 397 488 375L488 372Q489 361 486 355Q483 349 470 349Q463 349 460.5 357Q458 365 456 371Q449 400 435 433Q421 466 397 486Q382 500 359.5 509Q337 518 317 518Q269 518 235.5 493.5Q202 469 182 430.5Q162 392 152.5 348Q143 304 143 265Q143 226 152 185.5Q161 145 180.5 110Q200 75 232.5 54Q265 33 311 33Q375 33 418 56.5Q461 80 501 129Q505 136 512 136Q525 136 525 124Z" transform="translate(64.66, 19) scale(0.015, -0.015)" fill="#202124"/>
    <path d="M471 264Q471 307 464.5 350.5Q458 394 440.5 431Q423 468 390 490.5Q357 513 304 513Q254 513 222.5 489Q191 465 173.5 427Q156 389 149.5 345Q143 301 143 262Q143 219 149.5 176Q156 133 174 98.5Q192 64 225.5 43Q259 22 312 22Q364 22 395.5 44Q427 66 443.5 102Q460 138 465.5 180.5Q471 223 471 264ZM574 261Q574 186 538.5 126Q503 66 442.5 31Q382 -4 307 -4Q234 -4 175 31.5Q116 67 81 126.5Q46 186 46 259Q46 334 80 397.5Q114 461 173.5 500Q233 539 311 539Q395 539 454 503.5Q513 468 543.5 405.5Q574 343 574 261Z" transform="translate(72.76, 19) scale(0.015, -0.015)" fill="#202124"/>
    <path d="M315 13Q315 8 312.5 3.5Q310 -1 304 -1Q273 -1 241 0.5Q209 2 177 2L142 2Q121 2 100 0.5Q79 -1 58 -1Q54 -1 52.5 2.5Q51 6 51 9Q51 12 51 15Q51 18 52 21Q54 25 63.5 25.5Q73 26 83.5 25.5Q94 25 97 25Q111 25 122 31.5Q133 38 133 54Q133 131 134 207.5Q135 284 135 360Q135 438 134.5 516.5Q134 595 134 673Q134 680 133 688.5Q132 697 127 702Q123 707 119 707.5Q115 708 109 708Q91 708 73.5 702Q56 696 39 696Q28 696 28 709Q28 717 40.5 720Q53 723 60 724Q95 732 136 742Q177 752 210 765Q212 765 214 766Q216 767 217 767Q223 767 224.5 763Q226 759 226 754Q226 726 225.5 698.5Q225 671 225 643L225 363Q225 286 226 208.5Q227 131 227 54Q227 38 240.5 31.5Q254 25 267 25Q278 25 288 26Q298 27 308 27Q313 27 314 21.5Q315 16 315 13Z" transform="translate(82.06, 19) scale(0.015, -0.015)" fill="#202124"/>
  </g>
</svg>
