<?xml version="1.0" encoding="UTF-8"?>
<svg
  xmlns="http://www.w3.org/2000/svg"
  width="220"
  height="32"
  viewBox="0 0 220 32"
>
  <g
    transform="
      translate(0, 0)
      scale(1)
    "
  >
    <path d="M270 -9Q188 -9 139 23Q90 55 69 114.5Q48 174 48 254L48 561Q48 641 69.5 698.5Q91 756 139.5 786.5Q188 817 270 817Q352 817 400 786Q448 755 469.5 698Q491 641 491 561L491 253Q491 174 469.5 115Q448 56 400 23.5Q352 -9 270 -9ZM270 80Q315 80 338 98.5Q361 117 369 150.5Q377 184 377 229L377 584Q377 629 369 661.5Q361 694 338 711.5Q315 729 270 729Q225 729 201.5 711.5Q178 694 170 661.5Q162 629 162 584L162 229Q162 184 170 150.5Q178 117 201.5 98.5Q225 80 270 80Z" transform="translate(0.00, 19) scale(0.015, -0.015)" fill="#202124"/>
    <path d="M188 -8Q117 -8 74 36.5Q31 81 25 154L114 181Q122 126 141 98.5Q160 71 197 71Q226 71 241 87.5Q256 104 256 132Q256 157 245 177Q234 197 209 218L110 303Q80 329 59.5 361Q39 393 39 444Q39 490 57.5 521.5Q76 553 109.5 569.5Q143 586 188 586Q260 586 298 541.5Q336 497 342 434L266 407Q262 437 254 459.5Q246 482 231 494.5Q216 507 192 507Q166 507 150.5 489.5Q135 472 135 448Q135 433 141.5 418.5Q148 404 164 390L266 296Q287 277 305.5 255Q324 233 336 205Q348 177 348 140Q348 91 328 58Q308 25 272 8.5Q236 -8 188 -8Z" transform="translate(8.08, 19) scale(0.015, -0.015)" fill="#202124"/>
    <path d="M121 0L28 578L116 578L176 152L253 578L335 578L412 154L472 578L560 578L464 0L374 0L295 408L217 0Z" transform="translate(13.69, 19) scale(0.015, -0.015)" fill="#202124"/>
    <path d="M141 -8Q107 -8 81 11.5Q55 31 40 61.5Q25 92 25 126Q25 180 43 217Q61 254 92.5 279.5Q124 305 165.5 324Q207 343 253 361L253 402Q253 437 249 460Q245 483 232.5 494.5Q220 506 195 506Q173 506 159.5 496Q146 486 140 467.5Q134 449 134 424L134 395L28 399Q30 495 72 540.5Q114 586 202 586Q288 586 324 539Q360 492 360 403L360 139Q360 112 361.5 87Q363 62 365.5 40.5Q368 19 370 0L272 0Q269 16 264.5 40.5Q260 65 258 85Q248 51 219.5 21.5Q191 -8 141 -8ZM183 84Q199 84 213 93Q227 102 238 113.5Q249 125 253 132L253 296Q228 282 206 268Q184 254 167.5 238.5Q151 223 141.5 203.5Q132 184 132 159Q132 124 145 104Q158 84 183 84Z" transform="translate(22.52, 19) scale(0.015, -0.015)" fill="#202124"/>
    <path d="M64 0L64 810L171 810L171 0Z" transform="translate(28.65, 19) scale(0.015, -0.015)" fill="#202124"/>
    <path d="M188 -8Q115 -8 79 45.5Q43 99 43 227L43 339Q43 405 54 461.5Q65 518 95.5 552Q126 586 185 586Q214 586 238 573Q262 560 281 541L281 810L388 810L388 0L281 0L281 37Q262 17 239.5 4.5Q217 -8 188 -8ZM215 76Q230 76 247 81.5Q264 87 281 98L281 477Q267 487 250 494.5Q233 502 213 502Q176 502 163 466.5Q150 431 150 381L150 218Q150 178 154.5 145.5Q159 113 173 94.5Q187 76 215 76Z" transform="translate(32.09, 19) scale(0.015, -0.015)" fill="#202124"/>
  </g>
</svg>
