<?xml version="1.0" encoding="UTF-8"?>
<svg
  xmlns="http://www.w3.org/2000/svg"
  width="220"
  height="32"
  viewBox="0 0 220 32"
>
  <g
    transform="
      translate(0, 0)
      scale(1)
    "
  >
    <path d="M624 -13Q496 79 398.5 188Q301 297 236 418L354 480Q361 467 367 456.5Q373 446 382 433Q413 438 440.5 452Q468 466 485.5 493.5Q503 521 503 565Q503 621 469 653Q435 685 377 685Q342 685 303.5 684Q265 683 230 680L229 0L106 -13L89 669L40 662L20 750Q48 756 93 762.5Q138 769 191 775.5Q244 782 295.5 786Q347 790 388 790Q504 790 572 732Q640 674 640 565Q640 500 609 456Q578 412 528.5 387.5Q479 363 423 357Q517 212 696 52Z" transform="translate(0.00, 19) scale(0.015, -0.015)" fill="#202124"/>
    <path d="M325 -11Q238 -11 174.5 24.5Q111 60 76 125Q41 190 41 277Q41 365 76 430Q111 495 174.5 531Q238 567 325 567Q413 567 476.5 531Q540 495 574 430Q608 365 608 277Q608 190 574 125Q540 60 476.5 24.5Q413 -11 325 -11ZM341 81Q404 86 439 134.5Q474 183 474 259Q474 267 474 274.5Q474 282 473 290Q466 376 425.5 425Q385 474 323 474Q319 474 316 473.5Q313 473 309 473Q248 469 211.5 420Q175 371 175 294Q175 287 175 279.5Q175 272 176 264Q183 179 225 129.5Q267 80 328 80Q331 80 334.5 80.5Q338 81 341 81Z" transform="translate(10.89, 19) scale(0.015, -0.015)" fill="#202124"/>
    <path d="M545 80Q517 40 460 14.5Q403 -11 331 -11Q254 -11 188 21.5Q122 54 81.5 118Q41 182 41 278Q41 369 79 433.5Q117 498 182.5 532.5Q248 567 331 567Q398 567 453.5 544.5Q509 522 540 483L506 407Q481 433 436 450Q391 467 350 467Q303 467 264 445Q225 423 202.5 380.5Q180 338 180 278Q180 188 229 139Q278 90 353 90Q402 90 444.5 106Q487 122 512 150Z" transform="translate(20.63, 19) scale(0.015, -0.015)" fill="#202124"/>
    <path d="M439 -13L249 251L211 215L211 0L95 -14L75 800L211 780L211 325L404 572L553 541L308 307L577 14Z" transform="translate(29.38, 19) scale(0.015, -0.015)" fill="#202124"/>
    <path d="M445 -13L445 360Q445 410 414.5 436.5Q384 463 341 463Q298 463 262.5 440Q227 417 213 373L213 0L91 -13L71 572L213 555L213 490Q233 528 272.5 547.5Q312 567 381 567Q442 567 488.5 541Q535 515 560.5 470.5Q586 426 583 370L563 0Z" transform="translate(38.01, 19) scale(0.015, -0.015)" fill="#202124"/>
    <path d="M624 -13Q496 79 398.5 188Q301 297 236 418L354 480Q361 467 367 456.5Q373 446 382 433Q413 438 440.5 452Q468 466 485.5 493.5Q503 521 503 565Q503 621 469 653Q435 685 377 685Q342 685 303.5 684Q265 683 230 680L229 0L106 -13L89 669L40 662L20 750Q48 756 93 762.5Q138 769 191 775.5Q244 782 295.5 786Q347 790 388 790Q504 790 572 732Q640 674 640 565Q640 500 609 456Q578 412 528.5 387.5Q479 363 423 357Q517 212 696 52Z" transform="translate(47.79, 19) scale(0.015, -0.015)" fill="#202124"/>
    <path d="M325 -11Q238 -11 174.5 24.5Q111 60 76 125Q41 190 41 277Q41 365 76 430Q111 495 174.5 531Q238 567 325 567Q413 567 476.5 531Q540 495 574 430Q608 365 608 277Q608 190 574 125Q540 60 476.5 24.5Q413 -11 325 -11ZM341 81Q404 86 439 134.5Q474 183 474 259Q474 267 474 274.5Q474 282 473 290Q466 376 425.5 425Q385 474 323 474Q319 474 316 473.5Q313 473 309 473Q248 469 211.5 420Q175 371 175 294Q175 287 175 279.5Q175 272 176 264Q183 179 225 129.5Q267 80 328 80Q331 80 334.5 80.5Q338 81 341 81Z" transform="translate(58.68, 19) scale(0.015, -0.015)" fill="#202124"/>
    <path d="M79 -13L79 800L224 780L204 0Z" transform="translate(68.41, 19) scale(0.015, -0.015)" fill="#202124"/>
    <path d="M79 -13L79 800L224 780L204 0Z" transform="translate(72.81, 19) scale(0.015, -0.015)" fill="#202124"/>
    <path d="M402 -18Q294 -18 215 34Q136 86 93.5 178.5Q51 271 51 392Q51 511 93.5 602.5Q136 694 215 746.5Q294 799 402 799Q510 799 588.5 746.5Q667 694 709 602Q751 510 751 392Q751 271 709 178.5Q667 86 588.5 34Q510 -18 402 -18ZM427 95Q483 100 525.5 134Q568 168 592 227.5Q616 287 616 366Q616 377 615.5 388Q615 399 614 410Q607 497 576.5 559Q546 621 499 653.5Q452 686 395 686Q391 686 386.5 686Q382 686 377 685Q322 681 279 647Q236 613 211 554.5Q186 496 186 417Q186 407 186.5 396Q187 385 188 374Q195 286 226 223.5Q257 161 305 127.5Q353 94 411 94Q415 94 419 94.5Q423 95 427 95Z" transform="translate(77.20, 19) scale(0.015, -0.015)" fill="#202124"/>
    <path d="M445 -13L445 360Q445 410 414.5 436.5Q384 463 341 463Q298 463 262.5 440Q227 417 213 373L213 0L91 -13L71 572L213 555L213 490Q233 528 272.5 547.5Q312 567 381 567Q442 567 488.5 541Q535 515 560.5 470.5Q586 426 583 370L563 0Z" transform="translate(89.26, 19) scale(0.015, -0.015)" fill="#202124"/>
    <path d="M557 98Q528 59 495.5 35Q463 11 421 0Q379 -11 318 -11Q231 -11 169 27.5Q107 66 74 131.5Q41 197 41 278Q41 360 75 425.5Q109 491 170.5 529Q232 567 314 567Q394 567 451.5 530.5Q509 494 540 426.5Q571 359 571 266L571 249L209 249L187 327L433 347Q430 400 403.5 433.5Q377 467 319 467Q252 467 208.5 417.5Q165 368 165 277Q165 212 189.5 169.5Q214 127 251.5 106.5Q289 86 327 86Q391 86 441.5 107.5Q492 129 521 166Z" transform="translate(99.04, 19) scale(0.015, -0.015)" fill="#202124"/>
  </g>
</svg>
